<svg width="478" height="478" viewBox="0 0 478 478" fill="none" xmlns="http://www.w3.org/2000/svg">
<path d="M56.6558 477.139C42.1408 477.139 27.6258 471.614 16.5748 460.564C-5.52623 438.463 -5.52623 402.502 16.5748 380.402L158.408 238.569L16.5748 96.737C-5.52523 74.636 -5.52523 38.676 16.5748 16.575C38.6768 -5.526 74.6368 -5.524 96.7368 16.575L238.57 158.408L380.402 16.575C402.502 -5.524 438.463 -5.525 460.564 16.575C482.665 38.676 482.665 74.637 460.564 96.737L318.731 238.569L460.564 380.402C482.664 402.503 482.664 438.463 460.564 460.564C438.462 482.666 402.502 482.664 380.402 460.564L238.57 318.731L96.7368 460.564C85.6868 471.614 71.1718 477.139 56.6558 477.139ZM56.6558 19.99C47.2608 19.99 37.8688 23.565 30.7168 30.717C16.4148 45.02 16.4148 68.292 30.7168 82.594L179.62 231.498C183.525 235.403 183.525 241.735 179.62 245.641L30.7178 394.545C16.4148 408.847 16.4148 432.119 30.7178 446.422C45.0208 460.724 68.2938 460.724 82.5948 446.422L231.499 297.519C235.404 293.614 241.736 293.614 245.642 297.519L394.546 446.422C408.849 460.725 432.121 460.726 446.423 446.422C460.725 432.119 460.725 408.847 446.423 394.545L297.518 245.641C293.613 241.736 293.613 235.404 297.518 231.498L446.422 82.594C460.725 68.292 460.725 45.02 446.422 30.717C432.119 16.415 408.847 16.415 394.545 30.717L245.641 179.621C241.736 183.526 235.404 183.526 231.498 179.621L82.5948 30.717C75.4438 23.567 66.0488 19.99 56.6558 19.99Z" fill="black"/>
</svg>
