<svg width="500" height="500" viewBox="0 0 500 500" fill="none" xmlns="http://www.w3.org/2000/svg">
<path d="M79.6176 258.805C93.3743 282.95 107.606 307.913 120.968 332.784C133.482 356.1 146.268 379.221 159.044 402.316L172.265 426.241C193.3 465.818 211.463 500 249.913 500C289.829 500 310.883 458.686 327.369 426.293C330.007 421.521 332.615 416.671 335.223 411.821C338.386 405.934 341.56 400.047 344.774 394.289L345.674 392.694C372.449 344.883 400.155 295.451 426.496 246.201C430.721 238.316 435.037 230.393 439.363 222.457C448.621 205.483 458.204 187.938 467.048 170.276C469.292 165.802 472.173 161.056 475.185 156.038C488.729 133.474 511.401 93.2362 493.227 52.1941C483.069 29.2417 461.135 0 432.752 0H67.0334C34.537 0 3.33438 37.6446 0.271726 77.74C-2.235 110.457 13.1086 138.506 25.4299 160.058C27.7244 164.052 29.9279 168.512 31.8787 172.208C47.293 201.437 63.7282 230.912 79.6176 258.805ZM67.0334 51.8699H432.752C441.263 51.8699 452.149 64.4354 458.072 77.8178C462.277 87.2841 456.869 100.316 443.153 123.165C439.484 129.286 436.017 135.666 433.035 141.618C424.626 158.411 415.276 175.839 406.25 192.411C401.843 200.477 397.466 208.66 393.16 216.7C367.062 265.496 339.488 314.773 312.834 362.363L311.944 363.997C308.578 370.001 305.263 376.174 301.948 382.333C299.431 387.014 296.914 391.709 293.953 397.103C275.981 432.388 265.348 448.143 249.913 448.143C234.842 448.143 227.373 437.873 205.479 396.675L192.036 372.322C179.371 349.409 166.686 326.482 154.273 303.374C140.598 277.906 126.204 252.645 112.286 228.215C96.5986 200.685 80.3959 172.234 65.3758 143.77C63.1521 139.569 60.6454 135.173 58.0376 130.608C49.3651 115.436 39.5303 95.7778 40.5208 82.8233C41.5215 69.5057 55.6521 51.8699 67.0334 51.8699Z" fill="black"/>
</svg>
