<svg width="398" height="641" viewBox="0 0 398 641" fill="none" xmlns="http://www.w3.org/2000/svg">
<path fill-rule="evenodd" clip-rule="evenodd" d="M354 155C354 173.377 350.802 191.007 344.932 207.364C346.586 207.124 348.279 207 350 207C369.33 207 385 222.67 385 242C385 245.401 384.515 248.688 383.61 251.797C391.925 254.222 398 261.901 398 271C398 282.045 389.046 291 378 291C368.656 291 360.809 284.592 358.613 275.932C355.857 276.629 352.972 277 350 277C335.245 277 322.622 267.869 317.474 254.949C289.041 288.617 246.518 310 199 310C151.482 310 108.959 288.617 80.5262 254.949C75.3779 267.869 62.7552 277 48 277C45.028 277 42.1425 276.629 39.3872 275.932C37.1906 284.592 29.3435 291 20 291C8.9543 291 0 282.045 0 271C0 261.901 6.07497 254.222 14.3898 251.797C13.4851 248.688 13 245.4 13 242C13 222.67 28.67 207 48 207C49.7213 207 51.4135 207.124 53.0683 207.364C47.1982 191.007 44 173.377 44 155C44 69.3954 113.396 -0.000488281 199 -0.000488281C284.604 -0.000488281 354 69.3954 354 155ZM310.276 231.459C285.933 266.818 245.174 290 199 290C152.697 290 111.838 266.688 87.5197 231.161L96.25 236.884V106.718L302 106.627V236.884L310.276 231.459Z" fill="black"/>
<path fill-rule="evenodd" clip-rule="evenodd" d="M248.1 234C239.63 249.579 223.121 260.154 204.142 260.154C185.162 260.154 168.653 249.579 160.183 234H165.458C173.698 243.206 185.672 249 199 249C212.327 249 224.302 243.206 232.542 234H248.1Z" fill="black"/>
<path d="M230.5 144C230.5 161.384 241.729 174.5 254.5 174.5C267.271 174.5 278.5 161.384 278.5 144C278.5 126.616 267.271 113.5 254.5 113.5C241.729 113.5 230.5 126.616 230.5 144Z" stroke="black" stroke-width="5"/>
<path fill-rule="evenodd" clip-rule="evenodd" d="M255.977 111.05C255.488 111.017 254.996 111 254.5 111C239.864 111 228 125.775 228 144C228 147.12 228.348 150.139 228.998 153C233.176 156.14 238.371 158 244 158C257.807 158 269 146.807 269 133C269 123.532 263.737 115.294 255.977 111.05Z" fill="black"/>
<path d="M119.5 144C119.5 161.384 130.729 174.5 143.5 174.5C156.271 174.5 167.5 161.384 167.5 144C167.5 126.616 156.271 113.5 143.5 113.5C130.729 113.5 119.5 126.616 119.5 144Z" stroke="black" stroke-width="5"/>
<path fill-rule="evenodd" clip-rule="evenodd" d="M144.977 111.05C144.488 111.017 143.996 111 143.5 111C128.864 111 117 125.775 117 144C117 147.12 117.348 150.139 117.998 153C122.176 156.14 127.371 158 133 158C146.807 158 158 146.807 158 133C158 123.532 152.737 115.294 144.977 111.05Z" fill="black"/>
<path fill-rule="evenodd" clip-rule="evenodd" d="M141 301C103.445 301 73 331.445 73 369V513.114L13 577.455C47.355 597.177 78.1514 612.535 107.249 623.208C111.182 625.08 115.351 626.536 119.699 627.521C204.582 655.135 276.892 641.218 385 577.455L325 513.114V369C325 331.445 294.555 301 257 301H141ZM199 483L264.818 325.5H133.182L199 483ZM149 327L189.204 333.862C191.715 331.388 195.177 329.859 199 329.859C202.823 329.859 206.285 331.388 208.796 333.862L249 327V344.068V361.136L207.945 354.129C205.528 356.145 202.407 357.359 199 357.359C195.592 357.359 192.472 356.145 190.055 354.129L149 361.136V344.068V327Z" fill="black"/>
</svg>
