<svg width="398" height="310" viewBox="0 0 398 310" fill="none" xmlns="http://www.w3.org/2000/svg">
<path fill-rule="evenodd" clip-rule="evenodd" d="M354 155C354 173.377 350.802 191.007 344.932 207.364C346.586 207.124 348.279 207 350 207C369.33 207 385 222.67 385 242C385 245.401 384.515 248.689 383.61 251.798C391.925 254.223 398 261.902 398 271C398 282.046 389.046 291 378 291C368.656 291 360.809 284.593 358.613 275.932C355.857 276.63 352.972 277 350 277C335.245 277 322.622 267.869 317.474 254.95C289.041 288.618 246.518 310 199 310C151.482 310 108.959 288.618 80.5262 254.95C75.3779 267.869 62.7552 277 48 277C45.028 277 42.1425 276.63 39.3872 275.932C37.1906 284.593 29.3435 291 20 291C8.9543 291 0 282.046 0 271C0 261.902 6.07497 254.223 14.3898 251.798C13.4851 248.689 13 245.401 13 242C13 222.67 28.67 207 48 207C49.7213 207 51.4135 207.124 53.0683 207.364C47.1982 191.007 44 173.377 44 155C44 69.3959 113.396 0 199 0C284.604 0 354 69.3959 354 155ZM310.276 231.46C285.933 266.819 245.174 290 199 290C152.697 290 111.838 266.689 87.5197 231.162L96.25 236.885V106.718L302 106.627V236.885L310.276 231.46Z" fill="black"/>
<path fill-rule="evenodd" clip-rule="evenodd" d="M249 234C240.223 251.72 221.134 264 199 264C176.866 264 157.777 251.72 149 234H156.542C165.017 247.795 180.857 257.077 199 257.077C217.142 257.077 232.983 247.795 241.457 234H249Z" fill="black"/>
<path d="M230.5 144C230.5 161.384 241.729 174.5 254.5 174.5C267.271 174.5 278.5 161.384 278.5 144C278.5 126.616 267.271 113.5 254.5 113.5C241.729 113.5 230.5 126.616 230.5 144Z" stroke="black" stroke-width="5"/>
<path fill-rule="evenodd" clip-rule="evenodd" d="M255.977 111.05C255.488 111.017 254.996 111 254.5 111C239.864 111 228 125.775 228 144C228 147.12 228.348 150.139 228.998 153C233.176 156.14 238.371 158 244 158C257.807 158 269 146.807 269 133C269 123.532 263.737 115.294 255.977 111.05Z" fill="black"/>
<path d="M119.5 144C119.5 161.384 130.729 174.5 143.5 174.5C156.271 174.5 167.5 161.384 167.5 144C167.5 126.616 156.271 113.5 143.5 113.5C130.729 113.5 119.5 126.616 119.5 144Z" stroke="black" stroke-width="5"/>
<path fill-rule="evenodd" clip-rule="evenodd" d="M144.977 111.05C144.488 111.017 143.996 111 143.5 111C128.864 111 117 125.775 117 144C117 147.12 117.348 150.139 117.998 153C122.176 156.14 127.371 158 133 158C146.807 158 158 146.807 158 133C158 123.532 152.737 115.294 144.977 111.05Z" fill="black"/>
</svg>
