<svg width="310" height="629" viewBox="0 0 310 629" fill="none" xmlns="http://www.w3.org/2000/svg">
<path fill-rule="evenodd" clip-rule="evenodd" d="M310 155C310 240.604 240.604 310 155 310C69.3959 310 0 240.604 0 155C0 69.3959 69.3959 0 155 0C240.604 0 310 69.3959 310 155ZM290 155C290 229.558 229.558 290 155 290C80.4416 290 20 229.558 20 155C20 134.437 24.5974 114.948 32.8204 97.5043H277.18C285.403 114.948 290 134.437 290 155Z" fill="black"/>
<path fill-rule="evenodd" clip-rule="evenodd" d="M101.551 231C113.286 247.92 132.849 259 155 259C177.151 259 196.714 247.92 208.449 231H193.179C183.582 241.45 169.806 248 154.5 248C139.194 248 125.418 241.45 115.821 231H101.551Z" fill="black"/>
<path fill-rule="evenodd" clip-rule="evenodd" d="M29 369C29 331.445 59.4446 301 97 301H213C250.555 301 281 331.445 281 369V569C281 602.137 254.137 629 221 629H89C55.8629 629 29 602.137 29 569V369ZM154.5 571L220.751 320.5H178.693L160.804 348.813L180.115 448L155 486.5L129.885 448L149.196 348.813L131.307 320.5H88.2491L154.5 571Z" fill="black"/>
<path d="M123.5 144C123.5 161.384 112.271 174.5 99.5 174.5C86.7292 174.5 75.5 161.384 75.5 144C75.5 126.616 86.7292 113.5 99.5 113.5C112.271 113.5 123.5 126.616 123.5 144Z" stroke="black" stroke-width="5"/>
<path fill-rule="evenodd" clip-rule="evenodd" d="M98.0229 111.05C98.5119 111.017 99.0043 111 99.5 111C114.136 111 126 125.775 126 144C126 147.12 125.652 150.139 125.002 153C120.824 156.14 115.629 158 110 158C96.1929 158 85 146.807 85 133C85 123.532 90.263 115.294 98.0229 111.05Z" fill="black"/>
<path d="M234.5 144C234.5 161.384 223.271 174.5 210.5 174.5C197.729 174.5 186.5 161.384 186.5 144C186.5 126.616 197.729 113.5 210.5 113.5C223.271 113.5 234.5 126.616 234.5 144Z" stroke="black" stroke-width="5"/>
<path fill-rule="evenodd" clip-rule="evenodd" d="M209.023 111.05C209.512 111.017 210.004 111 210.5 111C225.136 111 237 125.775 237 144C237 147.12 236.652 150.139 236.002 153C231.824 156.14 226.629 158 221 158C207.193 158 196 146.807 196 133C196 123.532 201.263 115.294 209.023 111.05Z" fill="black"/>
</svg>
