<?xml version="1.0" ?><svg width="20px" height="20px" viewBox="0 0 20 20" version="1.1" xmlns="http://www.w3.org/2000/svg"><g id="layer1"><path d="M 18.646484 0.64648438 L 0.64648438 18.646484 L 1.3535156 19.353516 L 19.353516 1.3535156 L 18.646484 0.64648438 z M 0 1 L 0 12 L 2 12 L 2 15.5 L 3 14.5 L 3 11 L 1 11 L 1 2 L 15.878906 2 L 16.878906 1 L 0 1 z M 3 4 L 3 5 L 11 5 L 11 4 L 3 4 z M 18.121094 4 L 18 4.1210938 L 18 5 L 19 5 L 19 14 L 17 14 L 17 17.292969 L 13.707031 14 L 8.1210938 14 L 7.1210938 15 L 13.292969 15 C 13.292969 15 15.866484 17.57007 17.146484 18.853516 C 17.240237 18.94729 17.367399 18.99998 17.5 19 C 17.776142 19 18 18.776142 18 18.5 L 18 15 L 20 15 L 20 4 L 18.121094 4 z M 17 5.1210938 L 16 6.1210938 L 16 11 L 11.121094 11 L 10.121094 12 L 17 12 L 17 5.1210938 z M 3 6 L 3 7 L 7 7 L 7 6 L 3 6 z M 3 8 L 3 9 L 8.8789062 9 L 9.8789062 8 L 3 8 z " style="fill:#222222; fill-opacity:1; stroke:none; stroke-width:0px;"/></g></svg>