<svg width="22" height="24" viewBox="0 0 22 24" fill="none" xmlns="http://www.w3.org/2000/svg">
<path d="M11.1145 9.77297C10.6266 9.77297 10.2296 9.33436 10.2296 8.79516C10.2296 8.25577 10.6266 7.81688 11.1145 7.81688C11.6026 7.81688 11.9998 8.25577 11.9998 8.79516C11.9998 9.33436 11.6026 9.77297 11.1145 9.77297ZM11.1145 16.1836C10.6266 16.1836 10.2296 15.7447 10.2296 15.2053C10.2296 14.6659 10.6266 14.227 11.1145 14.227C11.6026 14.227 11.9998 14.6659 11.9998 15.2053C11.9998 15.7447 11.6026 16.1836 11.1145 16.1836ZM11.1145 22.5938C10.6266 22.5938 10.2296 22.1551 10.2296 21.6159C10.2296 21.0765 10.6266 20.6376 11.1145 20.6376C11.6026 20.6376 11.9998 21.0765 11.9998 21.6159C11.9998 22.1551 11.6026 22.5938 11.1145 22.5938ZM11.1145 1.40625C11.6026 1.40625 11.9998 1.84509 11.9998 2.38453C11.9998 2.92397 11.6026 3.36281 11.1145 3.36281C10.6266 3.36281 10.2296 2.92397 10.2296 2.38453C10.2296 1.84509 10.6266 1.40625 11.1145 1.40625ZM13.2723 2.38453C13.2723 1.06969 12.3043 0 11.1145 0C9.92486 0 8.95703 1.06969 8.95703 2.38453C8.95703 3.45464 9.59815 4.36228 10.4782 4.66313V6.51656C9.59815 6.81736 8.95703 7.72505 8.95703 8.79516C8.95703 9.86508 9.59815 10.7725 10.4782 11.0733V12.9267C9.59815 13.2275 8.95703 14.1352 8.95703 15.2053C8.95703 16.2754 9.59815 17.1831 10.4782 17.4839V19.3373C9.59815 19.6381 8.95703 20.5458 8.95703 21.6159C8.95703 22.9305 9.92486 24 11.1145 24C12.3043 24 13.2723 22.9305 13.2723 21.6159C13.2723 20.5457 12.631 19.638 11.7508 19.3373V17.4839C12.631 17.1832 13.2723 16.2755 13.2723 15.2053C13.2723 14.1351 12.631 13.2274 11.7508 12.9267V11.0733C12.631 10.7726 13.2723 9.86513 13.2723 8.79516C13.2723 7.72495 12.631 6.81727 11.7508 6.51652V4.66313C12.631 4.36238 13.2723 3.45473 13.2723 2.38453Z" fill="#AAAAAA"/>
<path d="M6.20123 2.88178C6.08093 3.01472 5.92106 3.08789 5.751 3.08789H2.39226C2.22224 3.08789 2.06266 3.01491 1.94206 2.88141C1.82206 2.74903 1.75597 2.57259 1.75597 2.38477C1.75597 2.19698 1.82206 2.02055 1.94283 1.88733C2.06266 1.75467 2.22224 1.68164 2.39226 1.68164H5.751C5.92106 1.68164 6.08093 1.75486 6.20119 1.8877C6.31946 2.01844 6.38728 2.19961 6.38728 2.38477C6.38728 2.56997 6.31946 2.75114 6.20123 2.88178ZM5.751 0.275391H2.39226C1.88191 0.275391 1.40249 0.495 1.04299 0.892969C0.682132 1.29103 0.483398 1.82086 0.483398 2.38477C0.483398 2.94872 0.682132 3.4785 1.04223 3.87577C1.40249 4.27458 1.88191 4.49414 2.39226 4.49414H5.751C6.26092 4.49414 6.74038 4.27472 7.10107 3.87614C7.46142 3.47798 7.65986 2.9483 7.65986 2.38477C7.65986 1.82128 7.46142 1.29159 7.10103 0.893344C6.74038 0.494859 6.26092 0.275391 5.751 0.275391Z" fill="#AAAAAA"/>
<path d="M6.20123 15.7022C6.08098 15.8351 5.92106 15.9082 5.751 15.9082H2.39226C2.22224 15.9082 2.06266 15.8352 1.94206 15.7017C1.82206 15.5694 1.75597 15.393 1.75597 15.2051C1.75597 15.0173 1.82206 14.8409 1.94283 14.7077C2.06266 14.575 2.22224 14.502 2.39226 14.502H5.751C5.92106 14.502 6.08093 14.5752 6.20119 14.708C6.31946 14.8388 6.38728 15.02 6.38728 15.2051C6.38728 15.393 6.3212 15.5696 6.20123 15.7022ZM5.751 13.0957H2.39226C1.88191 13.0957 1.40249 13.3153 1.04299 13.7133C0.682132 14.1114 0.483398 14.6412 0.483398 15.2051C0.483398 15.7691 0.682132 16.2988 1.04223 16.6961C1.40245 17.0949 1.88191 17.3145 2.39226 17.3145H5.751C6.26096 17.3145 6.74038 17.0951 7.10107 16.6965C7.46142 16.2983 7.65986 15.7687 7.65986 15.2051C7.65986 14.6416 7.46142 14.1119 7.10103 13.7137C6.74038 13.3152 6.26092 13.0957 5.751 13.0957Z" fill="#AAAAAA"/>
<path d="M16.0261 8.29786C16.1448 8.16694 16.3089 8.0918 16.4762 8.0918H19.8355C20.0055 8.0918 20.1652 8.16483 20.2852 8.29744C20.4055 8.43033 20.4717 8.60705 20.4717 8.79492C20.4717 8.98256 20.4055 9.15909 20.2852 9.29198C20.1667 9.42295 20.0028 9.49805 19.8355 9.49805H16.4762C16.3092 9.49805 16.1451 9.42277 16.0269 9.29245C15.9081 9.16092 15.84 8.97961 15.84 8.79492C15.84 8.60728 15.9063 8.43042 16.0261 8.29786ZM16.4762 10.9043H19.8355C20.3451 10.9043 20.8244 10.6849 21.1851 10.2863C21.5457 9.88781 21.7443 9.35812 21.7443 8.79492C21.7443 8.23139 21.5457 7.70156 21.1851 7.30308C20.8247 6.90487 20.3454 6.68555 19.8355 6.68555H16.4762C15.9669 6.68555 15.4877 6.90469 15.1262 7.3035C14.7659 7.70245 14.5674 8.23214 14.5674 8.79492C14.5674 9.35747 14.7659 9.88697 15.1271 10.2869C15.488 10.685 15.9672 10.9043 16.4762 10.9043Z" fill="#AAAAAA"/>
<path d="M20.2852 22.1138C20.1667 22.2447 20.0027 22.3198 19.8354 22.3198H16.4762C16.3092 22.3198 16.145 22.2445 16.0269 22.1142C15.9081 21.9827 15.84 21.8014 15.84 21.6167C15.84 21.4291 15.9063 21.2522 16.026 21.1196C16.1448 20.9887 16.3089 20.9136 16.4762 20.9136H19.8354C20.003 20.9136 20.167 20.9885 20.2852 21.1191C20.4055 21.2521 20.4717 21.4288 20.4717 21.6167C20.4717 21.8043 20.4055 21.9808 20.2852 22.1138ZM19.8354 19.5073H16.4762C15.9669 19.5073 15.4877 19.7264 15.1262 20.1252C14.7659 20.5242 14.5674 21.0539 14.5674 21.6167C14.5674 22.1792 14.7659 22.7087 15.127 23.1085C15.488 23.5067 15.9672 23.7261 16.4762 23.7261H19.8354C20.3451 23.7261 20.8244 23.5066 21.1851 23.1081C21.5457 22.7096 21.7443 22.1799 21.7443 21.6167C21.7443 21.0532 21.5457 20.5234 21.1851 20.1248C20.8247 19.7266 20.3454 19.5073 19.8354 19.5073Z" fill="#AAAAAA"/>
<path d="M7.0253 6.67383H2.3189C1.9675 6.67383 1.68262 6.98864 1.68262 7.37695C1.68262 7.76527 1.9675 8.08008 2.3189 8.08008H7.0253C7.3767 8.08008 7.66159 7.76527 7.66159 7.37695C7.66159 6.98864 7.3767 6.67383 7.0253 6.67383Z" fill="#AAAAAA"/>
<path d="M7.02012 9.50977H4.91656C4.56516 9.50977 4.28027 9.82453 4.28027 10.2129C4.28027 10.6012 4.56516 10.916 4.91656 10.916H7.02012C7.37152 10.916 7.65641 10.6012 7.65641 10.2129C7.65641 9.82453 7.37152 9.50977 7.02012 9.50977Z" fill="#AAAAAA"/>
<path d="M15.2037 14.4902H19.9105C20.2619 14.4902 20.5468 14.1754 20.5468 13.7871C20.5468 13.3988 20.2619 13.084 19.9105 13.084H15.2037C14.8523 13.084 14.5674 13.3988 14.5674 13.7871C14.5674 14.1754 14.8523 14.4902 15.2037 14.4902Z" fill="#AAAAAA"/>
<path d="M15.2037 17.3262H17.3077C17.6591 17.3262 17.944 17.0113 17.944 16.623C17.944 16.2347 17.6591 15.9199 17.3077 15.9199H15.2037C14.8523 15.9199 14.5674 16.2347 14.5674 16.623C14.5674 17.0113 14.8523 17.3262 15.2037 17.3262Z" fill="#AAAAAA"/>
</svg>
