<svg width="500" height="500" viewBox="0 0 500 500" fill="none" xmlns="http://www.w3.org/2000/svg">
<path d="M420.382 241.195C406.626 217.05 392.394 192.087 379.032 167.216C366.518 143.9 353.732 120.779 340.956 97.684L327.735 73.759C306.7 34.1822 288.537 8.45929e-06 250.087 8.45929e-06C210.171 8.45929e-06 189.117 41.3144 172.631 73.7071C169.993 78.4792 167.385 83.329 164.777 88.1788C161.614 94.0661 158.44 99.9533 155.226 105.711L154.326 107.306C127.551 155.117 99.8452 204.549 73.5044 253.799C69.2794 261.684 64.9634 269.607 60.6373 277.543C51.3786 294.517 41.7964 312.062 32.9521 329.724C30.7082 334.198 27.8274 338.944 24.8153 343.962C11.2709 366.526 -11.4007 406.764 6.77303 447.806C16.9313 470.758 38.8652 500 67.2478 500H432.967C465.463 500 496.666 462.355 499.728 422.26C502.235 389.543 486.891 361.494 474.57 339.942C472.276 335.948 470.072 331.488 468.121 327.792C452.707 298.563 436.272 269.088 420.382 241.195ZM432.967 448.13H67.2478C58.737 448.13 47.8509 435.565 41.9278 422.182C37.7229 412.716 43.1307 399.684 56.8469 376.835C60.516 370.714 63.9829 364.334 66.9647 358.382C75.3744 341.589 84.724 324.161 93.7502 307.589C98.1572 299.523 102.534 291.34 106.84 283.3C132.938 234.504 160.512 185.227 187.166 137.637L188.056 136.003C191.422 129.999 194.737 123.826 198.052 117.667C200.569 112.986 203.086 108.291 206.047 102.897C224.019 67.6124 234.652 51.857 250.087 51.857C265.158 51.857 272.627 62.1272 294.521 103.325L307.964 127.678C320.629 150.591 333.314 173.518 345.727 196.626C359.402 222.094 373.796 247.355 387.714 271.785C403.401 299.315 419.604 327.766 434.624 356.23C436.848 360.431 439.355 364.827 441.962 369.392C450.635 384.564 460.47 404.222 459.479 417.177C458.479 430.494 444.348 448.13 432.967 448.13Z" fill="black"/>
</svg>
